<?xml version="1.0" encoding="utf-8"?>
<!-- Generator: Adobe Illustrator 22.1.0, SVG Export Plug-In . SVG Version: 6.00 Build 0)  -->
<svg version="1.1" xmlns="http://www.w3.org/2000/svg" x="0px" y="0px"
     viewBox="0 0 16 16" enable-background="new 0 0 16 16" xml:space="preserve">
<g id="v4" display="none">
	<path fill="#3FA0D4" d="M14.4,3.1H9.5H7.2H1.6v5v1.5v1.5c0,1.8,1.4,3.2,3.2,3.2h4.8c1.8,0,3.2-1.4,3.2-3.2V8.7h1.6
		C15.3,8.7,16,8,16,7.1V4.7C16,3.8,15.3,3.1,14.4,3.1z M14.4,7.1h-1.6V4.7h1.6V7.1z"/>
  <path display="inline" fill="#3FA0D4" d="M12.8,4.8v1.6c0.9,0,1.6,0.7,1.6,1.6s-0.7,1.6-1.6,1.6v1.6c1.8,0,3.2-1.4,3.2-3.2
		S14.6,4.8,12.8,4.8z"/>
  <path fill="#FFFFFF" stroke="#FFFFFF" stroke-width="2.0281" stroke-miterlimit="10" d="M4.7,1.3C2.5,1.3,0.7,2.6,0,4.4
		c0.7,1.8,2.5,3.1,4.7,3.1c2.1,0,3.9-1.3,4.7-3.1C8.6,2.6,6.8,1.3,4.7,1.3z"/>
  <path display="inline" fill="#3FA0D4" d="M11.4,2.1H9.5H1.6v5v2v1.5v1.5c0,1.8,1.4,3.2,3.2,3.2h4.8c1.8,0,3.2-1.4,3.2-3.2v-0.9V9.7
		V8.1V5.7V4.1v-2H11.4z"/>
  <path display="inline" fill="#6E6E6E" d="M4.7,3c0.4,0,0.8,0.3,0.8,0.8S5.1,4.5,4.7,4.5c-0.4,0-0.8-0.3-0.8-0.8S4.2,3,4.7,3
		 M4.7,0.7c2.1,0,3.9,1.3,4.7,3.1C8.6,5.6,6.8,6.9,4.7,6.9S0.7,5.6,0,3.8C0.7,2,2.5,0.7,4.7,0.7 M4.7,1.8c-1.1,0-1.9,0.9-1.9,1.9
		s0.9,1.9,1.9,1.9s1.9-0.9,1.9-1.9S5.7,1.8,4.7,1.8"/>
</g>
  <g id="v5">
	<path fill="#3FA0D4" d="M12,4v2c1.1,0,2,0.9,2,2s-0.9,2-2,2v2c2.2,0,4-1.8,4-4C16,5.8,14.2,4,12,4z"/>
    <circle fill="#3FA0D4" cx="5" cy="12" r="3"/>
    <rect x="5" y="12" fill="#3FA0D4" width="4" height="3"/>
    <circle fill="#3FA0D4" cx="9" cy="12" r="3"/>
    <g display="none">
		<circle display="inline" fill="#FFFFFF" cx="4.5" cy="4" r="1.8"/>
	</g>
    <path display="none" fill="#FFFFFF" d="M9.9,3.6C9,1.4,6.9,0,4.5,0S0,1.4-0.9,3.6C-1,3.9-1,4.1-0.9,4.4C0,6.6,2.1,8,4.5,8
		S9,6.6,9.9,4.4C10,4.1,10,3.9,9.9,3.6z"/>
    <path fill="#6E6E6E" d="M4.5,3.2c0.4,0,0.8,0.3,0.8,0.8S4.9,4.8,4.5,4.8C4.1,4.8,3.8,4.4,3.8,4S4.1,3.2,4.5,3.2 M4.5,1
		c2,0,3.8,1.2,4.5,3C8.3,5.8,6.5,7,4.5,7S0.7,5.8,0,4C0.7,2.2,2.5,1,4.5,1 M4.5,2.1C3.5,2.1,2.6,3,2.6,4s0.8,1.9,1.9,1.9
		S6.4,5,6.4,4S5.5,2.1,4.5,2.1"/>
    <path fill="#3FA0D4" d="M10,2H8.9c0.4,0.5,0.8,1,1,1.6c0.1,0.2,0.1,0.5,0,0.7C9,6.6,6.9,8,4.5,8C3.6,8,2.8,7.8,2,7.5l0,0v1.9V12h10
		V2H10z"/>
</g>
  <g id="v3" display="none">
	<path fill="#3FA0D4" d="M14.4,3.1H9.5H7.2H1.6v5v1.5v1.5c0,1.8,1.4,3.2,3.2,3.2h4.8c1.8,0,3.2-1.4,3.2-3.2V8.7h1.6
		C15.3,8.7,16,8,16,7.1V4.7C16,3.8,15.3,3.1,14.4,3.1z M14.4,7.1h-1.6V4.7h1.6V7.1z"/>
    <path display="inline" fill="#3FA0D4" d="M12.8,4.8v1.6c0.9,0,1.6,0.7,1.6,1.6s-0.7,1.6-1.6,1.6v1.6c1.8,0,3.2-1.4,3.2-3.2
		S14.6,4.8,12.8,4.8z"/>
    <path fill="#FFFFFF" stroke="#FFFFFF" stroke-width="2.0281" stroke-miterlimit="10" d="M4.7,1.3C2.5,1.3,0.7,2.6,0,4.4
		c0.7,1.8,2.5,3.1,4.7,3.1c2.1,0,3.9-1.3,4.7-3.1C8.6,2.6,6.8,1.3,4.7,1.3z"/>
    <path display="inline" fill="#3FA0D4" d="M9.5,2.1c0.3,0.4,0.6,0.8,0.8,1.3l0.2,0.4l-0.2,0.4C9.3,6.4,7.1,7.9,4.7,7.9
		C3.5,7.9,2.5,7.6,1.6,7v2v1.5v1.5c0,1.8,1.4,3.2,3.2,3.2h4.8c1.8,0,3.2-1.4,3.2-3.2v-0.9V9.7V8.1V5.7V4.1v-2H9.5z"/>
    <path display="inline" fill="#6E6E6E" d="M4.7,3c0.4,0,0.8,0.3,0.8,0.8S5.1,4.5,4.7,4.5c-0.4,0-0.8-0.3-0.8-0.8S4.2,3,4.7,3
		 M4.7,0.7c2.1,0,3.9,1.3,4.7,3.1C8.6,5.6,6.8,6.9,4.7,6.9S0.7,5.6,0,3.8C0.7,2,2.5,0.7,4.7,0.7 M4.7,1.8c-1.1,0-1.9,0.9-1.9,1.9
		s0.9,1.9,1.9,1.9s1.9-0.9,1.9-1.9S5.7,1.8,4.7,1.8"/>
</g>
  <g id="v2" display="none">
	<path display="inline" fill="#3FA0D4" d="M14.4,3.1H9.5H7.2H1.6v5v1.5v1.5c0,1.8,1.4,3.2,3.2,3.2h4.8c1.8,0,3.2-1.4,3.2-3.2V8.7
		h1.6C15.3,8.7,16,8,16,7.1V4.7C16,3.8,15.3,3.1,14.4,3.1z M14.4,7.1h-1.6V4.7h1.6V7.1z"/>
    <path fill="#3FA0D4"
          d="M12.8,4.8v1.6c0.9,0,1.6,0.7,1.6,1.6s-0.7,1.6-1.6,1.6v1.6c1.8,0,3.2-1.4,3.2-3.2S14.6,4.8,12.8,4.8z"/>
    <path display="inline" fill="#FFFFFF" stroke="#FFFFFF" stroke-width="2.0281" stroke-miterlimit="10" d="M4.7,1.3
		C2.5,1.3,0.7,2.6,0,4.4c0.7,1.8,2.5,3.1,4.7,3.1c2.1,0,3.9-1.3,4.7-3.1C8.6,2.6,6.8,1.3,4.7,1.3z"/>
    <path fill="#3FA0D4" d="M9.5,2.1c0.3,0.4,0.6,0.8,0.8,1.3l0.2,0.4l-0.2,0.4C9.3,6.4,7.1,7.9,4.7,7.9C3.5,7.9,2.5,7.6,1.6,7v2v1.5
		v1.5c0,1.8,1.4,3.2,3.2,3.2h4.8c1.8,0,3.2-1.4,3.2-3.2v-0.9V9.7V8.1V5.7V4.1v-2H9.5z"/>
    <path display="inline" fill="#6E6E6E" d="M4.7,3c0.4,0,0.8,0.3,0.8,0.8S5.1,4.5,4.7,4.5c-0.4,0-0.8-0.3-0.8-0.8S4.2,3,4.7,3
		 M4.7,0.7c2.1,0,3.9,1.3,4.7,3.1C8.6,5.6,6.8,6.9,4.7,6.9S0.7,5.6,0,3.8C0.7,2,2.5,0.7,4.7,0.7 M4.7,1.8c-1.1,0-1.9,0.9-1.9,1.9
		s0.9,1.9,1.9,1.9s1.9-0.9,1.9-1.9S5.7,1.8,4.7,1.8"/>
</g>
</svg>
